<svg xmlns="http://www.w3.org/2000/svg" xmlns:xlink="http://www.w3.org/1999/xlink" version="1.0" x="0" y="0" width="2400" height="450.65824225682223" viewBox="57.220864868164064 103.82298431396484 225.5582702636719 42.35403900146484" preserveAspectRatio="xMidYMid meet" color-interpolation-filters="sRGB"><g><defs><linearGradient id="92" x1="0%" y1="0%" x2="100%" y2="0%"><stop offset="0%" stop-color="#fa71cd"></stop> <stop offset="100%" stop-color="#9b59b6"></stop></linearGradient><linearGradient id="93" x1="0%" y1="0%" x2="100%" y2="0%"><stop offset="0%" stop-color="#f9d423"></stop> <stop offset="100%" stop-color="#f83600"></stop></linearGradient><linearGradient id="94" x1="0%" y1="0%" x2="100%" y2="0%"><stop offset="0%" stop-color="#0064d2"></stop> <stop offset="100%" stop-color="#1cb0f6"></stop></linearGradient><linearGradient id="95" x1="0%" y1="0%" x2="100%" y2="0%"><stop offset="0%" stop-color="#f00978"></stop> <stop offset="100%" stop-color="#3f51b1"></stop></linearGradient><linearGradient id="96" x1="0%" y1="0%" x2="100%" y2="0%"><stop offset="0%" stop-color="#7873f5"></stop> <stop offset="100%" stop-color="#ec77ab"></stop></linearGradient><linearGradient id="97" x1="0%" y1="0%" x2="100%" y2="0%"><stop offset="0%" stop-color="#f9d423"></stop> <stop offset="100%" stop-color="#e14fad"></stop></linearGradient><linearGradient id="98" x1="0%" y1="0%" x2="100%" y2="0%"><stop offset="0%" stop-color="#009efd"></stop> <stop offset="100%" stop-color="#2af598"></stop></linearGradient><linearGradient id="99" x1="0%" y1="0%" x2="100%" y2="0%"><stop offset="0%" stop-color="#ffcc00"></stop> <stop offset="100%" stop-color="#00b140"></stop></linearGradient><linearGradient id="100" x1="0%" y1="0%" x2="100%" y2="0%"><stop offset="0%" stop-color="#d51007"></stop> <stop offset="100%" stop-color="#ff8177"></stop></linearGradient><linearGradient id="102" x1="0%" y1="0%" x2="100%" y2="0%"><stop offset="0%" stop-color="#a2b6df"></stop> <stop offset="100%" stop-color="#0c3483"></stop></linearGradient><linearGradient id="103" x1="0%" y1="0%" x2="100%" y2="0%"><stop offset="0%" stop-color="#7ac5d8"></stop> <stop offset="100%" stop-color="#eea2a2"></stop></linearGradient><linearGradient id="104" x1="0%" y1="0%" x2="100%" y2="0%"><stop offset="0%" stop-color="#00ecbc"></stop> <stop offset="100%" stop-color="#007adf"></stop></linearGradient><linearGradient id="105" x1="0%" y1="0%" x2="100%" y2="0%"><stop offset="0%" stop-color="#b88746"></stop> <stop offset="100%" stop-color="#fdf5a6"></stop></linearGradient></defs><g fill="#0a0a0a" class="iconlinesvg-g iconlinesvg" transform="translate(59.427785873413086,106.03433609008789)"><g class="tp-name" transform="translate(0,0)"><g transform="translate(0, 3.160785953116074)"><g fill="#0a0a0a" transform="scale(1)"><path d="M2.00-9.74L2.00-5.23L7.22 0L17.36 0L22.55-5.23L22.55-13.85L20.59-15.80L22.55-17.76L22.55-26.34L17.36-31.61L7.22-31.61L2.00-26.34L2.00-21.83L8.34-21.83L8.34-23.75L9.86-25.26L14.73-25.26L16.24-23.75L16.24-20.39L14.85-18.96L8.26-18.96L8.26-12.65L14.85-12.65L16.24-11.22L16.24-7.86L14.73-6.31L9.86-6.31L8.34-7.86L8.34-9.74Z" transform="translate(-1.9955654101995568, 31.60975609756098)"></path></g></g><g transform="translate(24, 3.160785953116074)"><g fill="#0a0a0a" transform="scale(1)"><path d="M2.00 0L15.88 0L20.83-4.95L20.83-26.66L15.88-31.61L2.00-31.61ZM7.98-25.62L13.13-25.62L14.85-23.91L14.85-7.70L13.13-5.99L7.98-5.99Z" transform="translate(-1.9955654101995564, 31.60975609756098)"></path></g></g><g transform="translate(46, 3.160785953116074)"><g fill="#0a0a0a" transform="scale(1)"><path d="M14.89-9.98L14.89-15.96L2.00-15.96L2.00-9.98Z" transform="translate(-1.9955654101995564, 31.60975609756098)"></path></g></g><g transform="translate(62, 3.160785953116074)"><g fill="#0a0a0a" transform="scale(1)"><path d="M26.14-31.61L20.12-31.61L18.68-17.16L14.89-31.61L13.21-31.61L9.46-17.12L7.98-31.61L2.00-31.61L5.15 0L11.18 0L14.05-11.10L16.96 0L22.99 0Z" transform="translate(-1.9955654101995568, 31.60975609756098)"></path></g></g><g transform="translate(90, 0)"><g><g class="imagesvg"><g><rect fill="#0a0a0a" fill-opacity="0" stroke-width="2" x="0" y="0" width="37.93170731707317" height="37.931328003793126" class="image-rect"></rect> <svg x="0" y="0" width="37.93170731707317" height="37.931328003793126" filtersec="colorsb7071788013" class="image-svg-svg primary" style="overflow: visible;"><svg xmlns="http://www.w3.org/2000/svg" viewBox="0.7519593834877014 0.6270000338554382 98.62203216552734 98.6209945678711"><path fill="#0A0A0A" d="M50.066.627A49.52 49.52 0 0 0 39.93 1.676c0 .317.007.71.007 1.249.007 1.18.014 2.85.028 4.843.02 3.995.048 9.295.069 14.594.02 5.292.041 10.584.034 14.545 0 1.98-.007 3.63-.02 4.782-.008.476-.014.814-.021 1.118.296-.242.69-.552 1.214-.973a667.237 667.237 0 0 1 4.747-3.699c3.947-3.056 9.226-7.12 14.511-11.185 5.285-4.057 10.564-8.114 14.518-11.143 1.973-1.511 3.615-2.774 4.754-3.65.441-.338.731-.56 1.014-.78C72.36 4.657 61.693.627 50.066.627zM39.323 1.814C24.757 5.05 12.627 14.717 6.05 27.696c.035.027.055.048.104.082.255.2.62.49 1.083.849.924.731 2.235 1.76 3.802 3.002 3.14 2.47 7.3 5.761 11.454 9.045 4.154 3.285 8.3 6.57 11.392 9.04a591.95 591.95 0 0 1 3.726 2.994c.372.304.628.518.855.71V51.86c.007-1.449.035-3.519.07-6.016.068-4.99.186-11.655.303-18.32.117-6.665.241-13.324.338-18.299.048-2.49.09-4.554.117-5.989.014-.614.021-1.056.028-1.421zm41.959 9.95a2069.808 2069.808 0 0 0-4.63 3.74c-3.112 2.504-7.238 5.837-11.364 9.156a3601.404 3601.404 0 0 1-11.35 9.094 556.823 556.823 0 0 1-3.755 2.967c-.379.296-.641.497-.883.676.373.083.863.193 1.518.345 1.408.331 3.43.814 5.851 1.408 4.851 1.18 11.323 2.773 17.789 4.367s12.93 3.202 17.76 4.402l5.817 1.443c.573.144.973.241 1.325.324-.062-15.284-7.087-28.925-18.078-37.923zM5.775 28.247A49.08 49.08 0 0 0 .752 49.94c0 7.383 1.635 14.38 4.54 20.673.083-.021.18-.042.317-.07.311-.075.766-.179 1.34-.31 1.144-.27 2.773-.649 4.712-1.104 3.891-.91 9.053-2.118 14.214-3.319 5.161-1.2 10.308-2.394 14.172-3.27 1.932-.442 3.54-.8 4.672-1.042.469-.104.8-.173 1.09-.228-.304-.235-.69-.545-1.215-.966a903.026 903.026 0 0 1-4.664-3.809c-3.857-3.167-8.998-7.41-14.131-11.66-5.134-4.251-10.267-8.495-14.097-11.676-1.918-1.587-3.505-2.905-4.616-3.822-.552-.456-.987-.814-1.276-1.056-.021-.02-.021-.028-.035-.034zm53.537 13.027c.166.345.387.793.676 1.4.621 1.311 1.498 3.188 2.553 5.451a4522.718 4522.718 0 0 1 7.673 16.636c2.78 6.052 5.562 12.11 7.632 16.63 1.035 2.263 1.897 4.14 2.497 5.45.297.642.518 1.132.677 1.477 11.102-8.963 18.236-22.646 18.354-38.005-.304-.07-.663-.152-1.16-.262l-4.726-1.056c-3.899-.87-9.074-2.022-14.242-3.174A3928.513 3928.513 0 0 1 65.06 42.62a503.817 503.817 0 0 1-4.658-1.083 24.66 24.66 0 0 1-1.09-.262zm-19.886 2.084c0 .006-.007.013-.007.02v.014c0-.014 0-.02.007-.034zm23.095 8.162c-.166.345-.38.794-.677 1.4-.634 1.305-1.559 3.161-2.677 5.397-2.228 4.464-5.223 10.419-8.218 16.373l-8.245 16.34a9083.404 9083.404 0 0 0-2.705 5.347c-.324.642-.58 1.139-.745 1.477-.042.076-.062.117-.09.172a49.295 49.295 0 0 0 10.902 1.222c11.51 0 22.08-3.947 30.47-10.55-.013-.021-.013-.035-.027-.056-.138-.29-.345-.71-.6-1.235-.518-1.056-1.25-2.56-2.126-4.354-1.752-3.588-4.077-8.356-6.396-13.117a3075.572 3075.572 0 0 1-6.34-13.089c-.857-1.787-1.567-3.27-2.057-4.32a17.285 17.285 0 0 1-.47-1.007zm-6.017 8.894c-.373.09-.863.2-1.511.345-1.415.31-3.443.752-5.886 1.277a5151.582 5151.582 0 0 1-17.926 3.781 14938.1 14938.1 0 0 1-17.913 3.74c-2.435.51-4.457.931-5.865 1.221-.703.145-1.255.262-1.621.338-.104.02-.159.035-.235.049 6.335 13.261 18.416 23.239 33.024 26.723.034-.076.076-.152.13-.269l.594-1.242 2.077-4.374a9583.06 9583.06 0 0 1 6.265-13.18c2.277-4.781 4.561-9.55 6.28-13.116.862-1.78 1.58-3.264 2.09-4.3.207-.427.359-.73.497-.993z"></path></svg></svg> </g></g></g></g><g transform="translate(131, 3.160785953116074)"><g fill="#0a0a0a" transform="scale(1)"><path d="M7.98-12.81L10.46-12.81L14.01 0L20.24 0L16.48-13.45L20.87-17.80L20.87-26.66L15.88-31.61L2.00-31.61L2.00 0L7.98 0ZM7.98-25.62L13.13-25.62L14.89-23.95L14.89-20.55L13.13-18.80L7.98-18.80Z" transform="translate(-1.9955654101995564, 31.60975609756098)"></path></g></g><g transform="translate(153, 3.160785953116074)"><g fill="#0a0a0a" transform="scale(1)"><path d="M17.08 0L17.08-5.99L7.98-5.99L7.98-31.61L2.00-31.61L2.00 0Z" transform="translate(-1.9955654101995564, 31.60975609756098)"></path></g></g><g transform="translate(172, 3.160785953116074)"><g fill="#0a0a0a" transform="scale(1)"><path d="M2.00 0L15.88 0L20.83-4.95L20.83-26.66L15.88-31.61L2.00-31.61ZM7.98-25.62L13.13-25.62L14.85-23.91L14.85-7.70L13.13-5.99L7.98-5.99Z" transform="translate(-1.9955654101995564, 31.60975609756098)"></path></g></g></g> <g fill-rule="" class="tp-slogan" fill="#0a0a0a" transform="translate(197.69000148773193,24.93132781982422)"> <g transform="scale(1, 1)"><g transform="scale(1)"><path d="M0.78-0.60C0.78-0.38 0.85-0.21 0.99-0.07C1.13 0.07 1.30 0.14 1.50 0.14C1.69 0.14 1.86 0.07 2.00-0.07C2.14-0.21 2.21-0.38 2.21-0.60C2.21-0.83 2.14-1.02 2.00-1.16C1.86-1.30 1.69-1.37 1.50-1.37C1.30-1.37 1.13-1.30 0.99-1.16C0.85-1.02 0.78-0.83 0.78-0.60ZM4.07-7.87L4.07 0L5.06 0L5.06-3.12L6.48-3.12C6.91-3.12 7.31-3.17 7.66-3.27C8.02-3.37 8.32-3.52 8.58-3.72C8.84-3.92 9.03-4.17 9.17-4.48C9.31-4.78 9.38-5.14 9.38-5.56C9.38-5.99 9.31-6.35 9.17-6.65C9.03-6.94 8.84-7.18 8.59-7.36C8.33-7.54 8.03-7.67 7.67-7.75C7.31-7.83 6.91-7.87 6.48-7.87ZM6.36-3.94L5.06-3.94L5.06-7.07L6.36-7.07C7.04-7.07 7.55-6.96 7.88-6.74C8.22-6.52 8.39-6.12 8.39-5.56C8.39-5.00 8.22-4.59 7.89-4.33C7.56-4.07 7.05-3.94 6.36-3.94ZM11.98-4.14L11.98-7.07L13.30-7.07C13.91-7.07 14.38-6.96 14.71-6.76C15.04-6.55 15.20-6.18 15.20-5.66C15.20-5.15 15.04-4.77 14.71-4.52C14.38-4.27 13.91-4.14 13.30-4.14ZM15.30 0L16.43 0L14.44-3.43C14.97-3.57 15.40-3.82 15.72-4.19C16.04-4.56 16.20-5.05 16.20-5.66C16.20-6.07 16.13-6.42 16.00-6.70C15.86-6.98 15.67-7.20 15.43-7.38C15.18-7.56 14.89-7.68 14.55-7.76C14.21-7.83 13.84-7.87 13.44-7.87L10.98-7.87L10.98 0L11.98 0L11.98-3.32L13.40-3.32ZM20.86 0.14C21.35 0.14 21.81 0.05 22.22-0.14C22.63-0.34 22.99-0.61 23.29-0.97C23.59-1.32 23.82-1.75 23.98-2.26C24.15-2.77 24.23-3.34 24.23-3.97C24.23-4.60 24.15-5.16 23.98-5.66C23.82-6.16 23.59-6.58 23.29-6.93C22.99-7.28 22.63-7.55 22.22-7.73C21.81-7.92 21.35-8.02 20.86-8.02C20.36-8.02 19.91-7.92 19.49-7.74C19.08-7.56 18.73-7.29 18.43-6.94C18.14-6.59 17.91-6.17 17.74-5.67C17.58-5.17 17.50-4.60 17.50-3.97C17.50-3.34 17.58-2.77 17.74-2.26C17.91-1.75 18.14-1.32 18.43-0.97C18.73-0.61 19.08-0.34 19.49-0.14C19.91 0.05 20.36 0.14 20.86 0.14ZM20.86-0.73C20.50-0.73 20.19-0.81 19.90-0.96C19.62-1.11 19.37-1.33 19.17-1.61C18.97-1.90 18.81-2.24 18.70-2.63C18.58-3.03 18.53-3.48 18.53-3.97C18.53-4.46 18.58-4.90 18.70-5.29C18.81-5.68 18.97-6.02 19.17-6.29C19.37-6.56 19.62-6.77 19.90-6.92C20.19-7.07 20.50-7.14 20.86-7.14C21.21-7.14 21.53-7.07 21.81-6.92C22.09-6.77 22.34-6.56 22.54-6.29C22.75-6.02 22.90-5.68 23.02-5.29C23.13-4.90 23.18-4.46 23.18-3.97C23.18-3.48 23.13-3.03 23.02-2.63C22.90-2.24 22.75-1.90 22.54-1.61C22.34-1.33 22.09-1.11 21.81-0.96C21.53-0.81 21.21-0.73 20.86-0.73Z" transform="translate(-0.78, 8.016)"></path></g></g></g></g><defs v-gra="od"></defs></g></svg>